<?xml version="1.0" standalone="no"?>
<!DOCTYPE svg PUBLIC "-//W3C//DTD SVG 20010904//EN"
 "http://www.w3.org/TR/2001/REC-SVG-20010904/DTD/svg10.dtd">
<svg version="1.0" xmlns="http://www.w3.org/2000/svg"
 width="512.000000pt" height="512.000000pt" viewBox="0 0 512.000000 512.000000"
 preserveAspectRatio="xMidYMid meet">
<metadata>
Created by potrace 1.11, written by Peter Selinger 2001-2013
</metadata>
<g transform="translate(0.000000,512.000000) scale(0.100000,-0.100000)"
fill="#000000" stroke="none">
<path d="M199 4688 c-48 -9 -94 -46 -115 -95 -12 -27 -14 -356 -14 -2031 l0
-1998 22 -44 c13 -25 38 -55 57 -67 l34 -23 2370 0 c2350 0 2371 0 2412 20 26
13 49 34 63 58 l21 38 2 2011 1 2011 -23 43 c-15 26 -39 50 -63 62 -39 20 -55
21 -2382 21 -1288 1 -2361 -2 -2385 -6z"/>
</g>
</svg>
