<svg width="1920" height="680" xmlns="http://www.w3.org/2000/svg">
	<defs>
		<linearGradient  id="Gradient" x1="0" x2="0" y1="1" y2="0">
			<stop offset="0" stop-color="#ff895e"/>
			<stop offset="1" stop-color="#ff2f96"/>
		</linearGradient>
	</defs>
	<path d="M1140 499 C 1159 456 1169 437 1207 381 C 1242 328 1260 305 1305 254 C 1364 187 1392 163 1434 134 C 1481 100 1508 88 1549 74 C 1594 62 1610 56 1652 53 C 1770 52 1810 71 1878 128 C 1937 187 1998 265 2020 345 C 2043 431 2040 489 2005 569 C 1973 640 1934 686 1864 733 C 1823 761 1780 780 1728 794 C 1686 805 1679 810 1584 813 Q 1547 815 1498 813 C 1419 811 1374 803 1299 764 C 1242 769 1208 751 1178 729 C 1138 700 1120 669 1114 630 C 1108 589 1116 553 1140 499" stroke="transparent" fill="url(#Gradient)"/>
		Sorry, your browser does not support inline SVG.
</svg>
